<svg width="1130" height="950" xmlns="http://www.w3.org/2000/svg">

 <g>
  <title>Layer 1</title>
  <g stroke="null">
   <g stroke="null">
    <path fill="#84D3DB" stroke="null" clip-rule="evenodd" fill-rule="evenodd" d="m177.61828,430.2724l106.67087,0l0,-8.08283l0,-133.5164c0,-76.4127 29.86499,-145.79033 77.8776,-196.15835l0,-0.07484c48.01261,-50.29317 114.38718,-81.57673 187.33491,-81.57673c72.87628,0 139.17941,31.28355 187.26347,81.57673l0.07145,0.07484c48.01261,50.29317 77.8776,119.74565 77.8776,196.15835l0,133.5164l0,8.00799l93.66746,0c11.36013,0 20.64828,9.72933 20.64828,21.62906l0,456.97935c0,11.89972 -9.28815,21.62906 -20.64828,21.62906l-730.76335,0c-11.36013,0 -20.64828,-9.72933 -20.64828,-21.62906l0,-456.90451c0,-11.89972 9.28815,-21.62906 20.64828,-21.62906l0,0l0,0zm163.6144,222.65207c31.22249,0 56.58629,26.49373 56.58629,59.19926c0,32.70553 -25.29236,59.2741 -56.58629,59.2741c-31.22249,0 -56.58629,-26.49373 -56.58629,-59.2741c0,-32.70553 25.29236,-59.19926 56.58629,-59.19926l0,0zm403.53455,0c31.22249,0 56.51484,26.49373 56.51484,59.19926c0,32.70553 -25.29236,59.2741 -56.51484,59.2741c-31.22249,0 -56.58629,-26.49373 -56.58629,-59.2741c0,-32.70553 25.3638,-59.19926 56.58629,-59.19926l0,0zm-201.76728,0c31.22249,0 56.51484,26.49373 56.51484,59.19926c0,32.70553 -25.29236,59.2741 -56.51484,59.2741c-31.22249,0 -56.58629,-26.49373 -56.58629,-59.2741c0,-32.70553 25.29236,-59.19926 56.58629,-59.19926l0,0zm-274.64356,-43.63232l549.14422,0c29.29341,0 53.22827,25.07175 53.22827,55.68173l0,94.2997c0,30.60998 -23.93486,55.68173 -53.22827,55.68173l-549.14422,0c-29.22196,0 -53.15682,-25.07175 -53.15682,-55.68173l0,-94.2997c0,-30.60998 23.93486,-55.68173 53.15682,-55.68173l0,0zm118.95981,-179.01975l324.29946,0l0,-8.08283l0,-135.08807c0,-46.7008 -18.21907,-89.21051 -47.58393,-119.97018l0,0c-29.36486,-30.75966 -69.94694,-49.91897 -114.45863,-49.91897c-44.58314,0 -85.16522,19.08446 -114.53008,49.84413c-29.36486,30.75966 -47.58393,73.26937 -47.58393,119.97018l0,135.08807l-0.14289,8.15767l0,0l0,0z" class="st0"/>
   </g>
  </g>
 </g>
</svg>